<svg xmlns="http://www.w3.org/2000/svg" width="96" height="96" viewBox="0 0 96 96">
  <!-- QR Code Icon -->
  <rect width="96" height="96" rx="12" fill="#1a1a2e"/>
  
  <!-- Top-left position marker -->
  <rect x="12" y="12" width="24" height="24" fill="#fff"/>
  <rect x="15" y="15" width="18" height="18" fill="#1a1a2e"/>
  <rect x="18" y="18" width="12" height="12" fill="#fff"/>
  
  <!-- Top-right position marker -->
  <rect x="60" y="12" width="24" height="24" fill="#fff"/>
  <rect x="63" y="15" width="18" height="18" fill="#1a1a2e"/>
  <rect x="66" y="18" width="12" height="12" fill="#fff"/>
  
  <!-- Bottom-left position marker -->
  <rect x="12" y="60" width="24" height="24" fill="#fff"/>
  <rect x="15" y="63" width="18" height="18" fill="#1a1a2e"/>
  <rect x="18" y="66" width="12" height="12" fill="#fff"/>
  
  <!-- Data modules (decorative) -->
  <rect x="42" y="12" width="6" height="6" fill="#fff"/>
  <rect x="42" y="24" width="6" height="6" fill="#fff"/>
  <rect x="48" y="18" width="6" height="6" fill="#fff"/>
  
  <rect x="12" y="42" width="6" height="6" fill="#fff"/>
  <rect x="24" y="42" width="6" height="6" fill="#fff"/>
  <rect x="18" y="48" width="6" height="6" fill="#fff"/>
  
  <rect x="42" y="42" width="6" height="6" fill="#fff"/>
  <rect x="54" y="42" width="6" height="6" fill="#fff"/>
  <rect x="48" y="48" width="6" height="6" fill="#fff"/>
  <rect x="42" y="54" width="6" height="6" fill="#fff"/>
  
  <rect x="60" y="42" width="6" height="6" fill="#fff"/>
  <rect x="72" y="48" width="6" height="6" fill="#fff"/>
  <rect x="78" y="42" width="6" height="6" fill="#fff"/>
  
  <rect x="42" y="60" width="6" height="6" fill="#fff"/>
  <rect x="48" y="66" width="6" height="6" fill="#fff"/>
  <rect x="42" y="72" width="6" height="6" fill="#fff"/>
  <rect x="54" y="78" width="6" height="6" fill="#fff"/>
  
  <rect x="60" y="60" width="6" height="6" fill="#fff"/>
  <rect x="72" y="66" width="6" height="6" fill="#fff"/>
  <rect x="66" y="72" width="6" height="6" fill="#fff"/>
  <rect x="78" y="78" width="6" height="6" fill="#fff"/>
</svg>
